<svg preserveAspectRatio="xMidYMid meet" data-bbox="-0.002 0 749.219 187"
    xmlns="http://www.w3.org/2000/svg" viewBox="-0.002 0 749.219 187" height="182" width="745" data-type="color" role="presentation" aria-hidden="true">
    <g>
        <g clip-path="url(#41178a26-928d-4a25-a341-c05a3b6adc76_comp-lf1n009i)">
            <path fill="#ffffff" d="M423.935 147.348a53.526 53.526 0 0 0 26.991-11.364l-8.905-11.115a39.28 39.28 0 0 1-63.826-29.503 39.286 39.286 0 0 1 41.717-40.364 39.277 39.277 0 0 1 20.265 7.162l8.238-11.618a53.519 53.519 0 0 0-56.226-3.522 53.538 53.538 0 0 0 2.815 95.78 53.515 53.515 0 0 0 28.931 4.544Zm13.239-66.962-45.068 13.826 45.068 13.826V80.386Z" clip-rule="evenodd" fill-rule="evenodd" data-color="1"></path>
            <path fill="#ffffff" d="M717.225 147.348a53.523 53.523 0 0 0 26.991-11.364l-8.905-11.115a39.276 39.276 0 0 1-57.342-9.008 39.292 39.292 0 0 1 14.235-56.282 39.27 39.27 0 0 1 41.264 2.585l8.237-11.618a53.519 53.519 0 0 0-56.226-3.522 53.528 53.528 0 0 0-28.228 48.761 53.53 53.53 0 0 0 31.043 47.018 53.516 53.516 0 0 0 28.931 4.545Zm13.239-66.962-45.068 13.826 45.068 13.826V80.386Z" clip-rule="evenodd" fill-rule="evenodd" data-color="1"></path>
            <path fill="#ffffff" d="M86.989 135.984a53.52 53.52 0 0 1-55.922 6.819A53.53 53.53 0 0 1 7.204 67.389a53.514 53.514 0 0 1 77.273-16.843l-8.236 11.618a39.279 39.279 0 0 0-41.266-2.585 39.283 39.283 0 0 0-20.718 35.787 39.291 39.291 0 0 0 22.785 34.508 39.27 39.27 0 0 0 41.041-5.005l8.906 11.115Z" data-color="1"></path>
            <path fill="#ffffff" d="M626.389 145.845a53.523 53.523 0 0 0 25.056-15.161v-30.049h-16.697v24.632a38.32 38.32 0 0 1-51.062-5.509 38.345 38.345 0 0 1 5.774-56.36 38.329 38.329 0 0 1 40.21-3.348l6.894-13.535a53.506 53.506 0 0 0-56.141 4.675 53.527 53.527 0 0 0-20.855 52.342 53.534 53.534 0 0 0 12.793 26.347 53.512 53.512 0 0 0 54.028 15.966Z" data-color="1"></path>
            <path fill="#ffffff" d="M299.713 98.494c0-29.563-23.962-53.53-53.521-53.53-29.558 0-53.52 23.967-53.52 53.53 0 29.564 23.962 53.53 53.52 53.53 15.134 0 28.801-6.283 38.535-16.382v16.382h14.986v-53.53Zm-14.986 0c0 21.698-16.842 39.287-38.535 39.287-21.692 0-39.279-17.589-39.279-39.287 0-21.697 17.587-39.286 39.279-39.286 21.693 0 38.535 17.589 38.535 39.286Z" clip-rule="evenodd" fill-rule="evenodd" data-color="1"></path>
            <path fill="#ffffff" d="M340.951 182V0h14.986v182h-14.986Z" clip-rule="evenodd" fill-rule="evenodd" data-color="1"></path>
            <path fill="#ffffff" d="M312.557 0v182h14.986V0h-14.986Z" clip-rule="evenodd" fill-rule="evenodd" data-color="1"></path>
            <path fill="#ffffff" d="M462.414 40.682v107.059h14.985v-82.22l62.037 82.036.047-.037v.221h14.985V40.682h-14.985v82.098l-62.084-82.097h-14.985Z" clip-rule="evenodd" fill-rule="evenodd" data-color="1"></path>
            <path fill="#ffffff" d="M94.195 40.682v107.059h14.986v-47.106h62.083v47.106h14.986V40.682h-14.986v44.965h-62.083V40.682H94.195Z" clip-rule="evenodd" fill-rule="evenodd" data-color="1"></path>
            <path fill-opacity=".5" fill="#ffffff" d="M428.935 152.348a53.526 53.526 0 0 0 26.991-11.364l-8.906-11.115a39.273 39.273 0 0 1-41.041 5.005 39.286 39.286 0 0 1 18.933-74.872 39.277 39.277 0 0 1 20.265 7.162l8.238-11.618a53.519 53.519 0 0 0-56.226-3.522 53.538 53.538 0 0 0-19.394 76.686 53.515 53.515 0 0 0 51.14 23.638Zm13.239-66.962-45.069 13.826 45.069 13.826V85.386Z" clip-rule="evenodd" fill-rule="evenodd" data-color="1"></path>
            <path fill-opacity=".5" fill="#ffffff" d="M722.225 152.348a53.53 53.53 0 0 0 26.992-11.364l-8.906-11.115a39.276 39.276 0 0 1-57.341-9.008 39.284 39.284 0 0 1-1.214-41.335 39.27 39.27 0 0 1 56.712-12.361l8.238-11.62a53.52 53.52 0 0 0-84.455 45.24 53.53 53.53 0 0 0 31.044 47.018 53.513 53.513 0 0 0 28.93 4.545Zm13.239-66.962-45.068 13.826 45.068 13.826V85.386Z" clip-rule="evenodd" fill-rule="evenodd" data-color="1"></path>
            <path fill-opacity=".5" fill="#ffffff" d="M91.989 140.984a53.52 53.52 0 0 1-55.922 6.819 53.53 53.53 0 0 1-23.863-75.414 53.514 53.514 0 0 1 77.273-16.843L81.24 67.164a39.279 39.279 0 0 0-41.265-2.585 39.283 39.283 0 0 0-20.718 35.787 39.291 39.291 0 0 0 22.784 34.508 39.27 39.27 0 0 0 41.042-5.005l8.906 11.115Z" data-color="1"></path>
            <path fill-opacity=".5" fill="#ffffff" d="M631.389 150.845a53.515 53.515 0 0 0 25.056-15.161v-30.049h-16.696v24.632a38.32 38.32 0 0 1-51.063-5.509 38.335 38.335 0 0 1-9.162-18.871 38.34 38.34 0 0 1 14.936-37.488 38.328 38.328 0 0 1 40.211-3.349l6.893-13.535a53.506 53.506 0 0 0-56.14 4.675 53.536 53.536 0 0 0-17.872 23.204 53.546 53.546 0 0 0 9.809 55.485 53.512 53.512 0 0 0 54.028 15.966Z" data-color="1"></path>
            <path fill-opacity=".5" fill="#ffffff" d="M304.713 103.494c0-29.563-23.962-53.53-53.521-53.53-29.558 0-53.52 23.967-53.52 53.53 0 29.564 23.962 53.53 53.52 53.53 15.134 0 28.801-6.283 38.535-16.382v16.382h14.986v-53.53Zm-14.986 0c0 21.698-16.842 39.287-38.535 39.287-21.692 0-39.279-17.589-39.279-39.287 0-21.697 17.587-39.286 39.279-39.286 21.693 0 38.535 17.589 38.535 39.286Z" clip-rule="evenodd" fill-rule="evenodd" data-color="1"></path>
            <path fill-opacity=".5" fill="#ffffff" d="M345.951 187V5h14.986v182h-14.986Z" clip-rule="evenodd" fill-rule="evenodd" data-color="1"></path>
            <path fill-opacity=".5" fill="#ffffff" d="M317.558 5v182h14.985V5h-14.985Z" clip-rule="evenodd" fill-rule="evenodd" data-color="1"></path>
            <path fill-opacity=".5" fill="#ffffff" d="M467.414 45.682v107.059h14.985v-82.22l62.036 82.036.048-.037v.221h14.985V45.682h-14.985v82.098l-62.084-82.097h-14.985Z" clip-rule="evenodd" fill-rule="evenodd" data-color="1"></path>
            <path fill-opacity=".5" fill="#ffffff" d="M99.195 45.682v107.059h14.986v-47.106h62.083v47.106h14.986V45.682h-14.986v44.965h-62.083V45.682H99.195Z" clip-rule="evenodd" fill-rule="evenodd" data-color="1"></path>
        </g>
        <defs fill="none">
            <clipPath id="41178a26-928d-4a25-a341-c05a3b6adc76_comp-lf1n009i">
                <path fill="#ffffff" d="M745 0v182H0V0h745z"></path>
            </clipPath>
        </defs>
    </g>
</svg>